<svg xmlns="http://www.w3.org/2000/svg" xmlns:xlink="http://www.w3.org/1999/xlink" width="769.245" height="769.245" viewBox="0 0 769.245 769.245">
  <defs>
    <clipPath id="clip-path">
      <path id="Path_108" data-name="Path 108" d="M0-47.5H769.245V721.745H0Z"/>
    </clipPath>
  </defs>
  <g id="_010272064ac540ad5af03ed3a8e24bb4" data-name="010272064ac540ad5af03ed3a8e24bb4" transform="translate(0 47.5)" clip-path="url(#clip-path)">
    <path id="Path_103" data-name="Path 103" d="M587.765,299.786s22.915-33.4-10.506-56.3C543.878,220.594,520.983,254,520.983,254l-106.3,155.023a207.479,207.479,0,0,0-12.126-18.1L550.092,175.755s22.9-33.381-10.506-56.276C506.2,96.563,483.31,129.965,483.31,129.965L344.522,332.337c-5.162-4.231-10.425-8.441-15.891-12.591L489.5,85.126s22.9-33.381-10.486-56.276c-33.381-22.915-56.276,10.486-56.276,10.486l-160.894,234.6c-5.911-3.644-11.761-6.781-17.612-10.081L394.583,44.579S417.479,11.2,384.077-11.7C350.7-34.613,327.8-1.212,327.8-1.212L168.81,230.635l-12.733,18.583-11.437,16.7C244.8,334.6,254.338,463.878,197.11,547.341c-11.458,16.7-28.138,5.263-28.138,5.263,68.685-100.184,47.693-212.757-52.491-281.442l29.6-147.816s11.033-38.968-27.915-50S68.181,101.26,68.181,101.26l-34.11,101.3C20.548,242.72,6.155,282.741-12.894,320.576c-53.786,106.885-21.66,239.741,79.779,309.3,110.63,75.852,261.847,47.673,337.719-62.957,4.008-5.87,7.369-11.6,10.567-17.328l.891.628Z" transform="translate(106.681 23.895)" fill="#d99e82"/>
    <path id="Path_104" data-name="Path 104" d="M37.987,132.155H-2.5A141.015,141.015,0,0,1,138.353-8.7V31.789A100.488,100.488,0,0,0,37.987,132.155" transform="translate(23.594 -17.709)" fill="#77b255"/>
    <path id="Path_105" data-name="Path 105" d="M37.987,189.933H-2.5C-2.5,78.311,88.311-12.5,199.933-12.5V27.987c-89.293,0-161.946,72.653-161.946,161.946" transform="translate(63.23 25.73)" fill="#77b255"/>
    <path id="Path_106" data-name="Path 106" d="M0,132.953V92.466c60.73,0,101.216-40.487,101.216-101.216H141.7c0,80.973-60.73,141.7-141.7,141.7" transform="translate(607.298 568.549)" fill="#77b255"/>
    <path id="Path_107" data-name="Path 107" d="M0,190.731V150.244c80.973,0,162.8-81.823,162.8-162.8h40.487c0,121.46-81.823,203.283-203.283,203.283" transform="translate(506.082 471.135)" fill="#77b255"/>
  </g>
</svg>
